<?xml version="1.0" encoding="UTF-8"?>
<svg enable-background="new 0 0 376.4 338.9" version="1.1" viewBox="0 0 376.4 338.9" xml:space="preserve" xmlns="http://www.w3.org/2000/svg">
<style type="text/css">
	.st0{fill:url(#i);}
	.st1{fill:#FFFFFF;}
	.st2{fill:#FF5F00;}
	.st3{fill:url(#h);}
	.st4{fill:url(#g);}
	.st5{fill:url(#f);}
	.st6{fill:#3E3E54;}
	.st7{fill:url(#e);}
	.st8{fill:url(#d);}
	.st9{fill:url(#c);}
	.st10{fill:url(#b);}
	.st11{fill:url(#a);}
	.st12{fill:url(#r);}
	.st13{fill:none;stroke:#FFFFFF;stroke-width:0.84;stroke-miterlimit:10;}
	.st14{fill:#0231A8;}
	.st15{fill:url(#q);}
	.st16{fill:url(#p);}
	.st17{fill:url(#o);}
	.st18{fill:url(#n);}
	.st19{fill:url(#m);}
	.st20{fill:url(#l);}
	.st21{fill:url(#k);}
	.st22{fill:#B7A451;}
	.st23{fill:url(#j);}
</style>
<title>Team Meeting Online</title>
<radialGradient id="i" cx="189.19" cy="182.43" r="116.44" gradientUnits="userSpaceOnUse">
	<stop stop-color="#F07513" offset="0"/>
	<stop stop-color="#FFD20F" offset="1"/>
</radialGradient>
<path class="st0" d="m371.4 216.3c-2.4 11.8-60.4 73-112.6 102.6-10.4 5.9-20.5 10.5-30 13.2-34.7 10-83.7 7-116.8 3.1-14.7-1.7-26.2-3.6-32-4.7-2.6-0.5-4.1-0.7-4.1-0.7-15-1.9-28.1-11.5-37.5-23.2s-15.7-25.7-21.9-39.4c-5.8-12.8-11.5-25.7-14.2-39.4-2-10.3-2.3-20.9-2.3-31.4 0.1-24.6 2.6-50.7 17.6-70.1 17-21.9 46.2-30.4 65.8-49.9 11.1-11 18.6-25 28.9-36.7 12.4-14.1 28.4-24.6 45.4-32.8 8.3-4 17.2-7.5 26.4-6.9 2.9 0.2 5.7 0.8 8.5 1.6 17.7 5.2 30.7 20.1 34.4 38.2 4.4 21.4 21.4 49.7 75.3 68.6 97 34.2 72 93.7 69.1 107.9z"/>
<path class="st1" d="m288.3 73.7h53.3c5.7 0 10.3 4.6 10.3 10.3v61.9c0 5.7-4.6 10.3-10.3 10.3h-53.3c-5.7 0-10.3-4.6-10.3-10.3v-61.9c0-5.7 4.6-10.3 10.3-10.3z"/>
<path class="st1" d="m41.9 78.3h53.3c5.7 0 10.3 4.6 10.3 10.3v61.9c0 5.7-4.6 10.3-10.3 10.3h-53.3c-5.7 0-10.3-4.6-10.3-10.3v-61.9c0-5.7 4.6-10.3 10.3-10.3z"/>
<path class="st2" d="m277.9 143.4c2.7-4.9 5.5-9.9 10-13.2 5-3.7 11.5-4.8 17.8-5.2 9-0.6 17.9-0.1 26.8 1.5 1.7 0.3 3.3 0.7 5 1.2 3.9 1.5 7.1 4.4 10 7.5 1.1 1.1 2 2.4 2.6 3.8 0.7 2.2 0.8 4.6 0.4 6.8-0.3 2.3-0.7 4.8-2.2 6.7-2.3 3.1-6.6 3.9-10.5 4.1-7.6 0.3-15.2-0.9-22.8-0.5-2.8 0.1-5.7 0.5-8.5 0.7-5.7 0.2-11.5 0.1-17.2-0.5-2.5-0.2-5.1-0.4-7.2-1.8-2.1-1.6-3.4-3.9-3.8-6.5-0.3-2.5-0.3-5.1 0-7.7"/>
<linearGradient id="h" x1="363.67" x2="382.21" y1="199.42" y2="199.42" gradientTransform="matrix(1 0 0 -1 -57.74 325.19)" gradientUnits="userSpaceOnUse">
	<stop stop-color="#E5C5D5" offset="0"/>
	<stop stop-color="#EAD4D1" offset=".42"/>
	<stop stop-color="#F0E9CB" offset="1"/>
</linearGradient>
<path class="st3" d="m309.4 117.2c-0.2 1.8-0.8 3.5-1.6 5-0.8 1.3-1.8 2.5-1.9 4.1 0 1 0.2 1.9 0.6 2.8 1 3 2.4 5.7 4.4 8.1 2.4 2.9 6.4 4.1 10 3 0.9-0.3 1.7-0.8 2.4-1.4 2.2-2.1 0.6-6.4-0.4-9.8-1.3-4.5 0.7-11.1 0-13.9-0.2-1.2-0.8-2.3-1.6-3.2-1-0.8-2.3-1.2-3.5-0.9-3.9 0.5-7.5 3.8-9.2 8.4"/>
<linearGradient id="g" x1="374.02" x2="374.08" y1="209.94" y2="184.77" gradientTransform="matrix(1 0 0 -1 -57.74 325.19)" gradientUnits="userSpaceOnUse">
	<stop stop-opacity="0" offset="0"/>
	<stop offset=".99"/>
</linearGradient>
<path class="st4" d="m317.9 126.5c1.5 0.2 3.2-0.1 4-1.3 0.4-0.7 0.6-1.6 0.6-2.4l0.3-4.9c-0.9 0.6-1.9 0.8-3 0.8-1.7 0.1-3.4 0.1-5.1 0.1-1.1 0-3.5-0.6-4.4 0.2-1.6 1.3 2.6 5.1 3.6 5.9 1.1 0.8 2.5 1.4 4 1.6z"/>
<linearGradient id="f" x1="358.43" x2="389.34" y1="223.15" y2="223.15" gradientTransform="matrix(1 0 0 -1 -57.74 325.19)" gradientUnits="userSpaceOnUse">
	<stop stop-color="#E5C5D5" offset="0"/>
	<stop stop-color="#EAD4D1" offset=".42"/>
	<stop stop-color="#F0E9CB" offset="1"/>
</linearGradient>
<path class="st5" d="m302.3 108.1c0.4 1.7 0.9 3.4 1.7 5 0.8 1.5 1.8 2.8 3 4 1.2 1.4 2.7 2.6 4.3 3.4 2.1 0.8 4.3 1.2 6.5 1.1 1.5 0 3-0.2 4.4-0.6 3.1-1.1 5.1-4.2 6.5-7.2 1.9-3.9 2.9-8.2 3-12.6s-1-8.7-3.2-12.4c-1.1-2-2.8-3.6-4.7-4.8-2.3-1.1-4.9-1.7-7.5-1.5-1.6 0-3.2 0.1-4.8 0.6-2.5 0.8-4.7 2.3-6.4 4.2-1.1 1-2 2.2-2.7 3.6-2.9 5.2-1.4 11.7-0.1 17.2z"/>
<path class="st6" d="m303.2 99.9c0.1 2.9-0.2 5.8-0.9 8.6-1.6-2-2.7-4.4-3.4-6.8-0.5-1.3-0.9-2.7-1.1-4.1-0.1-1.2-0.2-2.4-0.1-3.7 0-0.9 0.1-1.8 0.3-2.6 0.2-0.9 0.7-1.6 1.5-2.1 0.3-0.1 0.6-0.3 0.8-0.5 0.2-0.3 0.3-0.6 0.3-1 0.3-2.3 1.5-4.7 3.7-5.7 1.2-0.6 2.4-1.1 3.6-1.5 4.9-1.2 10-1.4 14.9-0.3 2.6 0.6 5.4 1.5 7.1 3.6 1.3 1.7 2.1 3.6 2.4 5.7 0.3 0.7 0.2 1.4-0.2 2-0.2 0.2-0.4 0.4-0.6 0.7-0.2 0.4-0.2 0.8-0.1 1.1 0.7 4.2 0.5 8.8-2 12.3 0-3.6-0.3-7.2-0.9-10.8 0-0.5-0.2-1-0.5-1.4-0.7-1-2.3-0.8-3.5-0.6-4.6 0.7-9.3 0.1-13.5-1.9-0.7-0.4-1.6-0.7-2.4-0.9-0.9-0.1-1.7 0.3-2.2 1-0.2 0.6-0.3 1.2-0.4 1.8-0.4 0.8-0.9 1.5-1.6 2.2-0.9 1.4-1.3 3.2-1.2 4.9z"/>
<path class="st2" d="m340.9 135.3c-0.2-1.1 0.1-2.3 0.8-3.2 0.7-0.6 1.7-0.9 2.6-0.9 1.9-0.1 3.8-0.1 5.7 0.1 0.3 0 0.6 0.1 0.9 0.3 0.3 0.3 0.5 0.7 0.5 1.2 0.4 3.1 0.6 6.3 0.4 9.4 0 3.2-0.7 6.3-2.2 9.2-1 1.7-2.4 3.1-4.1 4.1-1.3 0.8-4 2.2-5.5 1.5-1.8-0.8-0.7-3.6-0.4-5 0.4-2.6 0.8-5.2 1-7.8 0.3-3 0.4-6 0.3-8.9z"/>
<linearGradient id="e" x1="395.77" x2="409.31" y1="207.2" y2="207.2" gradientTransform="matrix(1 0 0 -1 -57.74 325.19)" gradientUnits="userSpaceOnUse">
	<stop stop-color="#E5C5D5" offset="0"/>
	<stop stop-color="#EAD4D1" offset=".42"/>
	<stop stop-color="#F0E9CB" offset="1"/>
</linearGradient>
<path class="st7" d="m343.7 125.1c-0.7-1.3-1.5-2.5-2.5-3.6-1-1.2-1.9-2.4-2.7-3.8-0.4-0.4-0.5-1-0.4-1.6 0.3-0.7 1.4-0.7 2-0.3 1 0.6 2 1.7 3.1 1.3s1.2-1.8 1-2.9c-0.5-3.7-2.6-7.4-1.3-10.9 1.5 1.9 2.6 4 3.5 6.3 0.5-0.2 0.8-0.7 0.8-1.2s-0.1-1.1-0.3-1.6c-0.4-1.6-0.3-3.3 0.3-4.8 1.1 0.8 1.9 2 2.2 3.3 2.4 6.7 2.1 14.1 1.7 21.2 0 1.4-0.2 2.7-0.5 4.1-0.2 1-0.7 1.9-1.5 2.6-1.2 0.9-4.5 1.3-5.1-0.4-0.4-1 0.1-2.8 0.1-3.9 0.2-1.3 0-2.6-0.4-3.8z"/>
<path class="st6" d="m78.7 90.2c-2-1.2-4.2-2.1-6.4-2.7-5.8-1.2-11.9 0.2-16.5 3.9s-7.8 8.9-9.1 14.7c-1.5 5.9-1.3 12.2-3.1 18-1.2 3.8-3.2 7.3-4.6 11.1s-2 8.1-0.4 11.7 5.2 6 9.1 7.1 7.8 1.1 11.8 1.1l9.7-0.1c6.1 0 13-0.4 17.2-4.8 3.5-3.6 4.3-8.9 4-13.9s-1.6-9.9-1.7-14.8c-0.2-11.8 1.9-24.6-10-31.3z"/>
<path class="st2" d="m40.9 144c2.9-2.6 7.1-3.3 11-3.4 6.1 0 12.2 0.5 18.3 1.6 2.4 0.3 4.8 0.8 7.1 1.5 7.8 2.5 13.7 8.8 19.2 14.8 0.4 0.3 0.6 0.8 0.7 1.3 0.1 1.2-1.5 1.6-2.7 1.7-14.7 0.6-29.4-1-44.1-0.2-4.5 0.2-13.2 1.3-15.5-3.9-1.8-4.1 3.2-10.9 6-13.4z"/>
<linearGradient id="d" x1="111.04" x2="137.83" y1="204.29" y2="204.29" gradientTransform="matrix(1 0 0 -1 -57.74 325.19)" gradientUnits="userSpaceOnUse">
	<stop stop-color="#E5C5D5" offset="0"/>
	<stop stop-color="#EAD4D1" offset=".42"/>
	<stop stop-color="#F0E9CB" offset="1"/>
</linearGradient>
<path class="st8" d="m65.9 111.7c-1.3 0.6-2.7 1.1-4.2 1.4-2.4 0.4-4.9-0.2-7.3 0-0.1 0-0.3 0-0.4 0.1s-0.2 0.3-0.2 0.4c-0.6 4.3-0.7 8.7-0.4 13 0.1 1.8 0.6 3.6 1.3 5.3 2.2 4.4 7 7.1 11.9 6.6 4.9-0.6 9.1-3.8 11.1-8.3 1-2.6 1.6-5.3 1.7-8 0.3-3.5 0.5-7 0.6-10.5-1.5-0.9-2.5-2.5-2.7-4.3-0.2-1.5-0.1-3 0.1-4.4-2.9 4.2-6.8 6.7-11.5 8.7z"/>
<linearGradient id="c" x1="114.57" x2="127.69" y1="183.58" y2="183.58" gradientTransform="matrix(1 0 0 -1 -57.74 325.19)" gradientUnits="userSpaceOnUse">
	<stop stop-color="#E5C5D5" offset="0"/>
	<stop stop-color="#EAD4D1" offset=".42"/>
	<stop stop-color="#F0E9CB" offset="1"/>
</linearGradient>
<path class="st9" d="m68.7 146.2c-0.5 1.7-1.7 3.2-3.3 4-1.8 0.7-3.9 0.5-5.6-0.4-1-0.5-1.9-1.2-2.4-2.2-0.4-0.8-0.5-1.7-0.5-2.5-0.1-1.6 0-3.3 0.3-4.9 0.4-2.4 1.4-4.9 3.3-6.4 2.2-1.6 7-1.9 8.6 0.7 1.7 2.7 0.5 9.1-0.4 11.7z"/>
<path class="st1" d="m184.6 28.1h53.4c5.7 0 10.3 4.6 10.3 10.3v61.9c0 5.7-4.6 10.3-10.3 10.3h-53.4c-5.7 0-10.3-4.6-10.3-10.3v-61.9c0-5.7 4.6-10.3 10.3-10.3z"/>
<path class="st2" d="m183.5 93.8c2.9-2.6 7.1-3.3 11-3.4 5.7-0.1 11.5 0.3 17.1 1.3 5.5 0.9 11.1 0.8 16.7 1.1 2 0.1 4.2 0.3 5.6 1.7 0.7 0.8 1.2 1.7 1.5 2.7l1.4 3.5c1 2.5 4.7 8.5 1.6 10.2-1.7 0.9-5.2 0.3-7.1 0.3-2.5 0-5 0-7.5-0.1-10.3-0.2-20.5-0.8-30.8-0.3-4.5 0.3-13.2 1.3-15.5-3.9-1.7-3.8 3.3-10.7 6-13.1z"/>
<path class="st6" d="m213.2 36.6c3-1.9 6.8-2.1 10-0.4 1.1 0.5 2 1.3 2.7 2.3 0.9 1.6 1.5 3.4 1.5 5.3 0.7 6.4 0.8 12.7 0.4 19.1-0.4 5.8-1.2 11.8 0.3 17.4-3.9-2.5-7.1-6-9.3-10.1s-4-8.3-5.3-12.7c-1.4-4.1-2.4-8.3-4.1-12.2-1.6-3 1.1-6.9 3.8-8.7z"/>
<linearGradient id="b" x1="1056.3" x2="1069.4" y1="-115.44" y2="-115.44" gradientTransform="matrix(.9815 -.1915 -.1915 -.9815 -854.03 181.67)" gradientUnits="userSpaceOnUse">
	<stop stop-color="#867580" offset="0"/>
	<stop stop-color="#9B8F8E" offset=".57"/>
</linearGradient>
<path class="st10" d="m217.4 95c-0.2 1.8-1 3.4-2.4 4.5-1.7 1-3.7 1.3-5.6 0.7-1.1-0.2-2.1-0.8-2.8-1.7-0.5-0.7-0.8-1.5-1-2.4-0.4-1.6-0.6-3.2-0.6-4.8 0-2.4 0.4-5 2.1-6.9 1.8-2 6.5-3.3 8.6-1s2.1 8.8 1.7 11.6z"/>
<linearGradient id="a" x1="269.08" x2="269.67" y1="245.7" y2="215.57" gradientTransform="matrix(1 0 0 -1 -57.74 325.19)" gradientUnits="userSpaceOnUse">
	<stop stop-opacity="0" offset="0"/>
	<stop offset=".99"/>
</linearGradient>
<path class="st11" d="m206.7 91c0.8 1.2 2 2.1 3.4 2.5 1 0.2 2 0.3 3 0.3 0.3 0 0.7 0 1-0.1s0.5-0.2 0.7-0.4c1.9-1.4 2.8-3.7 2.5-6 0-0.2-4.1-0.5-4.5-0.5-1.5-0.2-3.1-0.2-4.6-0.2-0.9 0-2.2-0.1-2.5 0.9s0.4 2.6 1 3.5z"/>
<linearGradient id="r" x1="254.66" x2="284.24" y1="255.84" y2="255.84" gradientTransform="matrix(1 0 0 -1 -57.74 325.19)" gradientUnits="userSpaceOnUse">
	<stop stop-color="#867580" offset="0"/>
	<stop stop-color="#9B8F8E" offset=".57"/>
</linearGradient>
<path class="st12" d="m197 63c-0.1 4 0.3 8 1.1 12s2.8 7.6 5.6 10.5c2.7 2.5 6.2 3.9 9.9 3.8s7.1-1.8 9.3-4.7c1.9-2.5 2.6-5.7 3-8.7 0.8-5.3 0.8-10.8 0.2-16.1-0.1-1.5-0.5-3-1.1-4.4-1.3-2.2-3.3-3.8-5.7-4.6-3.8-1.4-7.9-1.7-11.9-0.9-8.9 1.7-9.7 8.1-10.3 8.4-0.2 1.5-0.2 3.1-0.1 4.7z"/>
<path class="st6" d="m192.9 55.5c0.3-4.5 2.6-8.6 6.3-11.1 3.7-2.4 8.3-2.7 12.6-2.8 4.6-0.1 9.5 0.1 13.4 2.6 4.3 2.9 6.8 7.7 6.7 12.8-0.1 4.6-2 9-5.4 12.2-0.8-1.1-1-2.6-1.6-3.8s-1.3-2.3-2.2-3.3l-3.8-4.8c-0.1-0.2-0.3-0.4-0.5-0.5-0.4-0.2-0.9-0.2-1.4-0.1-4.2 0.5-8.4 0.7-12.7 0.6-1.6 0-3.5 0-4.7 1.1-1.5 1.4-0.8 7.7-3.7 7.3-1.4-0.2-2.1-3.1-2.5-4.2-0.3-2-0.6-4.1-0.5-6z"/>
<circle class="st13" cx="205.3" cy="70.4" r="4.1"/>
<circle class="st13" cx="217.8" cy="70.4" r="4.1"/>
<polygon class="st14" points="172.8 177.5 171.3 177.5 171.3 146.2 216.8 146.2 216.8 112.1 218.3 112.1 218.3 147.6 172.8 147.6"/>
<polygon class="st14" points="187.3 175.3 185.9 175.3 185.9 168.6 305.8 168.6 305.8 157 307.2 157 307.2 170 187.3 170"/>
<polygon class="st14" points="159.3 177.1 157.8 177.1 157.8 171.8 65.4 171.8 65.4 161.5 66.8 161.5 66.8 170.4 159.3 170.4"/>
<path class="st2" d="m137.9 175.7h70.1c6 0 10.9 4.8 10.9 10.8v100.9c0 5.5-4.4 9.9-9.9 9.9h-71.5c-5.7 0-10.4-4.6-10.4-10.3v-100.6c0.1-5.9 4.9-10.7 10.8-10.7z"/>
<linearGradient id="q" x1="172.51" x2="174.87" y1="22.81" y2="337.63" gradientTransform="matrix(1 0 0 -1 0 340)" gradientUnits="userSpaceOnUse">
	<stop stop-color="#fff" stop-opacity="0" offset=".02"/>
	<stop stop-color="#fff" stop-opacity=".39" offset=".32"/>
	<stop stop-color="#fff" stop-opacity=".68" offset=".68"/>
	<stop stop-color="#fff" offset="1"/>
</linearGradient>
<path class="st15" d="m137.9 175.7h70.1c6 0 10.9 4.8 10.9 10.8v100.9c0 5.5-4.4 9.9-9.9 9.9h-71.5c-5.7 0-10.4-4.6-10.4-10.3v-100.6c0.1-5.9 4.9-10.7 10.8-10.7z"/>
<rect class="st1" x="131.5" y="185.3" width="83.2" height="97.4"/>
<path class="st14" d="m138.1 259.3l9.4-5.4c3.3-2 6.8-3.7 10.4-5 5.5-1.8 11.4-1.7 17.1-1.5 9.1 0.3 18.4 1.1 26.5 5.4 8 4.3 14.4 12.9 13.4 21.9-0.3 2.3-0.9 4.5-1.7 6.7-0.1 0.5-0.4 1-0.9 1.4-0.5 0.3-1 0.4-1.5 0.3-20.7 0.1-41.3 1.3-62 0.2-5.4-0.3-10.9 0.5-16.3 0.7-0.7 0-0.8-15.6-0.7-16.8 0.3-4.2 2.8-5.9 6.3-7.9z"/>
<linearGradient id="p" x1="262.37" x2="285.06" y1="50.327" y2="82.947" gradientTransform="matrix(1 0 0 -1 -57.74 325.19)" gradientUnits="userSpaceOnUse">
	<stop stop-opacity="0" offset="0"/>
	<stop offset=".99"/>
</linearGradient>
<path class="st16" d="m204.6 247.4c1.1 3 1.7 6.1 2 9.2 0.4 3.5 0.9 7.1 1 10.7 0.2 4.8 0 9.6 0.9 14.3s2.8 9.4 6.6 12.3c0.4 0.5 1.1 0.7 1.7 0.6 0.6-0.2 0.9-1 1.1-1.6 2.3-8.5-0.2-17.4-1.4-26.2-0.4-3.8-0.9-7.7-1.7-11.4-0.6-2.6-1.5-5.1-2.8-7.5-0.9-2-2.2-3.7-3.7-5.3-0.9-0.8-4.6-3.5-5.8-2.1-1.1 1.4 1.6 5.6 2.1 7z"/>
<linearGradient id="o" x1="213.18" x2="170.32" y1="49.885" y2="73.205" gradientTransform="matrix(1 0 0 -1 -57.74 325.19)" gradientUnits="userSpaceOnUse">
	<stop stop-opacity="0" offset="0"/>
	<stop offset=".99"/>
</linearGradient>
<path class="st17" d="m141.6 262.8c-0.3 2.3-0.4 4.7-0.4 7.1v11c0.1 2-0.1 4-0.6 6-1.1 3.6-3.6 6.6-7 8.4-0.4 0.3-0.9 0.4-1.4 0.4-1.2 0-2-1.3-2.4-2.4-2.5-6.2-2.8-13.1-2.6-19.7s0.7-13.4-0.3-20c-0.2-0.9-0.2-1.8 0.1-2.7 0.5-0.8 1.3-1.5 2.2-1.9l10.3-5.5c2.1-1.1 6.8-8.4 8.2-5.1 1.1 2.5-2.5 11.8-3.3 14.2-1.2 3.3-2.2 6.7-2.8 10.2z"/>
<linearGradient id="n" x1="155.15" x2="205.91" y1="54.852" y2="54.852" gradientTransform="matrix(1 0 0 -1 -57.74 325.19)" gradientUnits="userSpaceOnUse">
	<stop stop-color="#E5C5D5" offset="0"/>
	<stop stop-color="#EAD4D1" offset=".42"/>
	<stop stop-color="#F0E9CB" offset="1"/>
</linearGradient>
<path class="st18" d="m123.1 300.5c5.8-4.1 10.2-10 12.6-16.7 4.1-11.7 1.9-25.3 8.1-35.9 1.5-2.6 3.5-4.9 4.2-7.8s-0.4-6.6-3.3-7.3-5.6 1.9-7.5 4.2l-9.9 12c-0.1-1-0.1-10.6 0-13.8-10.2 0.5-19.2 8.8-21.7 18.7-0.8 3.7-1.2 7.4-1.1 11.2 0 3.9 0.1 7.8 0.4 11.7 0.2 2.5 0.2 5 0 7.6-0.8 7.1-5.3 13.2-7.2 20.1-0.1 0.3-0.1 0.6 0 0.9 0.1 0.2 0.4 0.4 0.6 0.5 2.9 1.6 6.4 1.9 9.7 2s6.9 0.3 10.4 0.2c0.7 0 1.3-0.1 1.9-0.3 1.2-0.6 1.5-2.2 1.6-3.6"/>
<linearGradient id="m" x1="259.8" x2="309.47" y1="53.96" y2="53.96" gradientTransform="matrix(1 0 0 -1 -57.74 325.19)" gradientUnits="userSpaceOnUse">
	<stop stop-color="#E5C5D5" offset="0"/>
	<stop stop-color="#EAD4D1" offset=".42"/>
	<stop stop-color="#F0E9CB" offset="1"/>
</linearGradient>
<path class="st19" d="m215.7 290.1c-6.7-12.6-3-28.8-9.6-41.5-1.7-3.2-4-6.4-4-10-0.2-1.3 0.7-2.6 2.1-2.8 0.4-0.1 0.9 0 1.3 0.1 5.5 0.9 8.5 7 13.5 9.5l-0.4-9.5c5.8 0.8 11.3 3.3 15.6 7.4 2 1.8 3.5 3.9 4.6 6.3 1 2.6 1.5 5.3 1.6 8.1 0.4 6.6-0.2 13.3 0.3 19.9s2 13.4 6.1 18.6c2.2 2.8 5.3 5.6 5 9.2 0 0.3-0.1 0.5-0.3 0.8-0.3 0.2-0.6 0.3-1 0.3-3.9 0-7.9 0-11.8-0.1-3.3-0.1-9.4 0.8-12.3-0.6-2.1-1-3.4-5-4.8-7.1-2.2-2.7-4.1-5.6-5.9-8.6z"/>
<linearGradient id="l" x1="221.6" x2="244.73" y1="75.094" y2="75.094" gradientTransform="matrix(1 0 0 -1 -57.74 325.19)" gradientUnits="userSpaceOnUse">
	<stop stop-color="#E5C5D5" offset="0"/>
	<stop stop-color="#EAD4D1" offset=".42"/>
	<stop stop-color="#F0E9CB" offset="1"/>
</linearGradient>
<path class="st20" d="m164.8 254.2c1.1 4.5 4 8.3 8.1 10.4 2.4 1.3 5.2 1.8 7.7 0.7 3.6-1.6 5.8-6.4 6.3-11.1s-0.4-9.5-1.4-14.1c-0.1-1.3-0.6-2.6-1.4-3.7-0.6-0.5-1.3-0.9-2.1-1.1-4.2-1.1-12.9-2.2-16.4 2.2-2.6 3.3-1.8 12.8-0.8 16.7z"/>
<linearGradient id="k" x1="213.38" x2="252.09" y1="96.954" y2="96.954" gradientTransform="matrix(1 0 0 -1 -57.74 325.19)" gradientUnits="userSpaceOnUse">
	<stop stop-color="#E5C5D5" offset="0"/>
	<stop stop-color="#EAD4D1" offset=".42"/>
	<stop stop-color="#F0E9CB" offset="1"/>
</linearGradient>
<path class="st21" d="m155.6 209v28.3s0.2 12.6 20.2 14.1 18.1-23.8 18.1-23.8l0.4-21s-33.8-4.9-38.7 2.4z"/>
<path class="st22" d="m158.6 215.3c-0.3 0.4-0.8 0.4-1.3 0.5-1.2 0.4-1.7 1.9-1.9 3.2-0.5 3.2-0.9 6.4-1 9.6l-3.4-9.1c-0.9-2-1.4-4.1-1.7-6.2-0.3-2.2 0.4-4.4 1.9-6 0.4-0.4 0.8-0.8 1.2-1.3 0.3-0.6 0.4-1.3 0.5-2 0.5-2.5 1.9-4.7 3.9-6.2s4.3-2.6 6.6-3.3c8.8-3 18.3-3.1 27.2-0.1 2.9 1 5.9 2.6 7.2 5.3 0.7 1.5 1 3.1 1 4.7 0.3 6.7-1.3 13.3-4.6 19.2 0.3-4.4-0.2-8.7-1.4-12.9 0.5 1.7-18.6 2.3-20.2 2.1-3.4-0.4-6.6-1.7-9.9-2.2-1.2-0.2-2-0.3-2.9 0.6-1.1 1.1-0.4 3.1-1.2 4.1z"/>
<path class="st22" d="m163.3 235.7c1.7-2.3 4.3-3.8 7.2-4 2.8-0.2 5.7 0.1 8.4 0.7 2.1 0.4 4.5 0.9 5.9 2.6 1 1.2 1.3 2.9 2.1 4.3s2.7 2.4 4 1.5c0.2 2.4-1.6 4.4-3.1 6.3s-2.7 4-4.7 5.2c-1.5 0.8-3.1 1.2-4.8 1.2-3.8 0.4-7.7 0-11.2-1.3-1.7-0.7-3.3-1.6-4.6-2.8-0.9-0.8-3.4-3.1-3.4-4.5 0-0.6 0.9-1.2 1.2-1.8 0.5-0.8 0.8-1.6 1.1-2.5 0.5-1.7 1.1-3.3 1.9-4.9z"/>
<linearGradient id="j" x1="225.68" x2="241.05" y1="82.498" y2="82.498" gradientTransform="matrix(1 0 0 -1 -57.74 325.19)" gradientUnits="userSpaceOnUse">
	<stop stop-color="#E5C5D5" offset="0"/>
	<stop stop-color="#EAD4D1" offset=".42"/>
	<stop stop-color="#F0E9CB" offset="1"/>
</linearGradient>
<path class="st23" d="m169.1 238.3c0.6-0.6 1.4-0.9 2.3-0.9 2.4-0.3 4.8-0.3 7.3-0.1 0.8 0 1.6 0.2 2.4 0.5 1.8 1 2.1 3.3 2.3 5.3 0.2 1 0 2.1-0.4 3-0.7 1-1.9 1.6-3.1 1.7-3.3 0.6-7.6 0.5-10.5-1.3-1-0.6-1.5-1.7-1.3-2.8 0-1.3 0.1-4.2 1-5.4z"/>
<path class="st14" d="m112.5 333.3c-0.1 0.6-0.3 1.3-0.5 1.9-14.7-1.7-26.2-3.6-32-4.7 0.1-2 0.6-4 1.4-5.8 2.2-5.4 4.7-10.6 7.6-15.6 0.6-1.4 1.7-2.6 3-3.4 1.4-0.5 2.9-0.6 4.3-0.3 5.8 0.7 20.4 0.5 23.1 7.2 2.1 5.2-5.7 15.1-6.9 20.7z"/>
<path class="st14" d="m259.6 317.2c-0.1 0.6-0.4 1.2-0.9 1.7-10.4 5.9-20.5 10.5-30 13.2-0.4-0.4-0.6-1-0.8-1.5-2.1-6.7-4.3-13.5-6.4-20.2-0.7-2.3-1.4-5 0-6.9s4.4-2.2 6.9-2.1c6.3 0 16.7-1.5 22.6 0.6 5.4 1.9 6.1 7.9 8 13 0.5 0.6 0.7 1.4 0.6 2.2z"/>
</svg>
