<?xml version="1.0" encoding="UTF-8"?>
<svg enable-background="new 0 0 1164 1020.5" version="1.1" viewBox="0 0 1164 1020.5" xml:space="preserve" xmlns="http://www.w3.org/2000/svg">
<style type="text/css">
	.st0{opacity:0.3;}
	.st1{fill:#FFFFFF;}
	.st2{fill:none;}
	.st3{fill:#FFFFFF;stroke:#000000;stroke-miterlimit:10;}
</style>
<title>Patron</title>
	<g class="st0">
				<path class="st1" d="m719.1 326.3h49.3c1.9 0.1 3.4-1.3 3.5-3.2s-1.3-3.4-3.2-3.5h-0.4-49.3c-1.9-0.1-3.4 1.3-3.5 3.2s1.3 3.4 3.2 3.5h0.4z"/>
				<path class="st1" d="m743.7 311.2c4.6 0 8.3-3.7 8.3-8.3s-3.7-8.3-8.3-8.3-8.3 3.7-8.3 8.3 3.7 8.3 8.3 8.3z"/>
				<path class="st1" d="m752 339.9c0-4.6-3.7-8.3-8.3-8.3s-8.3 3.7-8.3 8.3 3.7 8.3 8.3 8.3c4.5 0 8.3-3.7 8.3-8.3z"/>
				<path class="st1" d="m950.9 506.8c-11.7 0-19.5 9.6-26.4 18.1-5.8 7.2-11.4 14.1-18.1 14.1-7 0-11.3-7.2-11.3-12.3 0-4.8 4.7-11.7 12.1-11.7 4.4 0.1 8.6 2.3 11.1 6 1.2 1.9 3.6 2.5 5.5 1.3s2.5-3.6 1.3-5.5c-0.2-0.4-6.2-9.9-18-9.9s-20.2 10.4-20.2 19.8c0 9.7 7.9 20.4 19.3 20.4 10.6 0 17.6-8.7 24.4-17.1 6.3-7.8 12.2-15.1 20.1-15.1 4.7 0 7.8 1.6 9.4 4.9 1 2.3 1.5 4.7 1.4 7.2-0.2 2.4-0.8 4.6-1.9 6.7-1.4 3.1-4.6 5-8 4.8-7.4 0-11.3-4.8-12.8-6.6-0.3-0.4-0.6-0.8-1-1.1-1.7-1.5-4.2-1.4-5.7 0.3s-1.4 4.2 0.3 5.7l0.3 0.3c4.5 5.9 11.5 9.4 19 9.5 13.5 0 17.9-13.2 17.9-19.7 0.1-3.7-0.7-7.4-2.3-10.7-1.9-4.4-6.5-9.4-16.4-9.4z"/>
				<path class="st1" d="m89.9 944.5c1.4 1.4 3.6 1.4 5 0l16.4-16.4 16.4 16.4c1.5 1.2 3.8 1 5-0.6 1-1.3 1-3.1 0-4.4l-16.4-16.4 15.6-15.5c1.5-1.2 1.8-3.5 0.6-5s-3.5-1.8-5-0.6l-0.6 0.6-15.6 15.4-15.6-15.5c-1.5-1.2-3.8-1-5 0.6-1 1.3-1 3.1 0 4.4l15.6 15.5-16.4 16.4c-1.4 1.4-1.4 3.6 0 5.1z"/>
				<path class="st1" d="m940.8 138.9c0.9 0 1.8-0.4 2.4-1s1-1.5 1-2.4v-22.3h22.3c1.9 0 3.4-1.5 3.4-3.4s-1.5-3.4-3.4-3.4h-22.3v-21.1c-0.1-1.9-1.7-3.3-3.6-3.2-1.7 0.1-3.1 1.5-3.2 3.2v21.1h-21.1c-1.9 0-3.4 1.5-3.4 3.4s1.5 3.4 3.4 3.4h21v22.3c0 1.9 1.6 3.4 3.5 3.4z"/>
				<path class="st1" d="m112.1 514.6l-0.2 0.7c-1.1 3.5-9.2 37.1-9.8 39.8-0.2 0.4-1.1 3-3 3-3 0-4.4-4.4-4.4-4.5-0.5-1.7-2.3-2.7-4-2.2s-2.7 2.3-2.2 4c1 3.4 4.3 9.1 10.6 9.1 5.4 0 8.3-4.8 9.1-7.7v-0.2c3-12.5 8.9-36.8 9.8-39.6l0.2-0.8c0.7-2.2 2.7-9.1 5.3-9.1 2.3 0 2.7 3.9 2.7 4 0.2 1.8 1.9 3 3.6 2.8 1.6-0.2 2.8-1.6 2.8-3.3-0.3-3.4-2.5-9.9-9.1-9.9-7.4 0.2-10.1 9.5-11.4 13.9z"/>
				<path class="st1" d="m1090.2 741.8h69.3c2.6-0.1 4.6-2.3 4.5-4.9-0.1-2.4-2.1-4.4-4.5-4.5h-69.3c-2.6 0.1-4.6 2.3-4.5 4.9 0.1 2.5 2 4.4 4.5 4.5z"/>
				<path class="st1" d="m712.3 756.6h62.8c2.4-0.1 4.2-2.1 4.1-4.5-0.1-2.2-1.9-4-4.1-4.1h-62.8c-2.4 0.1-4.2 2.1-4.1 4.5 0.1 2.3 1.9 4 4.1 4.1z"/>
				<path class="st1" d="m712.3 736.7h62.8c2.4 0 4.3-1.9 4.3-4.3s-1.9-4.3-4.3-4.3h-62.8c-2.4 0-4.3 1.9-4.3 4.3 0 2.3 1.9 4.2 4.3 4.3z"/>
				<path class="st1" d="m554.3 128.4c-9.2-7.2-2.7-36.6-2.7-36.6h11.2c3.2 0 5.8-2.6 5.8-5.8v-0.4c0-6.7-5.6-6.3-5.6-6.3h-41.1c-6.8 0-12.8 7.7-16.3 13.3-1.9 3-0.8 3.8 2.4 2.4 11.2-4.9 14.4-3.1 14.4-3.1 0.8 3.8 1 20.8-1.8 27.6-2.9 6.3-8.3 14.4-0.4 19.1 6.2 3.5 12.6-3.7 12-15.9-0.3-6.5-0.8-30.7-0.8-30.7h10.3c-0.3 3.8-2.1 23.1-0.2 34.5 1.9 19.1 22.7 15.4 26.5 4.6 0.8-2.3 0.8-4.7 0-7-1.3-3.2-3.5-3.4-3.3-1.9 0.1 0.9 0.1 1.8-0.1 2.8-0.6 2.4-6 6.5-10.3 3.4z"/>
				<path class="st1" d="m523.3 946.6c0.6 1.4 1.9 2.2 3.4 2.2h46.1c2 0 3.6-1.6 3.6-3.6v-10.9c0-2-1.6-3.6-3.6-3.6s-3.6 1.6-3.6 3.6v7.3h-33.7l16.7-16.8c1.3-1.3 1.4-3.5 0.2-4.9l-17.7-20.8h34.6v2.4c0 2 1.6 3.6 3.6 3.6s3.6-1.6 3.6-3.6v-6c0-2-1.6-3.6-3.6-3.7h-46.1c-2 0-3.6 1.7-3.6 3.7 0 0.9 0.3 1.7 0.9 2.3l20.7 24.2-20.5 20.6c-1.3 1-1.6 2.6-1 4z"/>
				<path class="st1" d="m349.8 789.2c5.9 0 9.1-5.3 10-8.4v-0.2c2.2-8.9 5.6-23.1 8.1-33.4h9.1c1.7 0 3.1-1.4 3.1-3.1s-1.4-3.1-3.1-3.1h-7.6c0.8-3.3 1.4-5.6 1.6-6.3l0.3-0.9c1-3.3 3.2-11 6.7-11 3.2 0 3.7 5 3.7 5.2 0.1 1.7 1.6 3 3.3 2.8 1.7-0.1 3-1.6 2.9-3.3-0.3-3.8-2.7-10.9-9.9-10.9-8.1 0-11.2 10.4-12.6 15.4l-0.3 0.8c-0.3 1-1.1 4-2.1 8.1h-10.7c-1.7 0-3.1 1.4-3.1 3.1s1.4 3.1 3.1 3.1h9.3c-3.2 12.9-7.3 30-7.8 31.8-0.2 0.5-1.4 3.9-4 3.9-4 0-5.7-5.6-5.7-5.6-0.5-1.7-2.2-2.6-3.9-2.1s-2.6 2.2-2.1 3.9c1.1 3.8 4.8 10.2 11.7 10.2z"/>
				<path class="st1" d="m395.8 781.2c1.8 0.1 3.3-1.4 3.4-3.2v-0.2c0-1-0.5-2-1.2-2.8l-6.4-7.4 6.3-7.3c0.6-0.7 1-1.6 1-2.5 0-1.8-1.5-3.2-3.3-3.2h-0.1c-1.3 0.1-2.5 0.8-3.2 1.9l-4.9 6.3-4.8-6.3c-0.8-1.2-2-1.9-3.4-1.9-1.8-0.1-3.3 1.3-3.4 3.1v0.2c0 1 0.5 2 1.2 2.8l6 6.9-6.6 7.8c-0.6 0.7-1 1.6-1 2.5 0 1.8 1.5 3.2 3.3 3.2h0.1c1.3-0.1 2.5-0.8 3.2-1.9l5.2-6.8 5.2 6.8c0.7 1.2 2 1.9 3.4 2z"/>
				<path class="st1" d="m900.7 930.4h1.8l11.1 14.4c0.7 0.9 1.7 1.4 2.8 1.4h0.4c1.2-0.1 2.3-0.9 2.8-2l21.1-45.1h15.6c1.9 0 3.5-1.6 3.5-3.5s-1.6-3.5-3.5-3.5h-18c-1.3 0-2.6 0.8-3.2 2l-19.6 41.9-8.7-11.3c-0.7-0.9-1.7-1.4-2.8-1.4h-3.4c-1.9 0.1-3.4 1.7-3.3 3.7 0.2 1.8 1.6 3.3 3.4 3.4z"/>
				<path class="st1" d="m174.7 138.7l-81-66c-1.9-1.5-4.6-1.2-6.1 0.7-0.6 0.8-0.9 1.7-0.9 2.7v65.5c0 2.4 1.9 4.4 4.3 4.4l81 0.7c1.8-0.1 3.5-1.3 4.1-3 0.5-1.8 0-3.7-1.4-5zm-79.4-1.5v-52.1l64.4 52.6-64.4-0.5z"/>
				<path class="st1" d="m71.3 108.9c0-0.9 0.7-1.6 1.6-1.6s1.5 0.7 1.6 1.6v4.2c0.8-1.1 2.1-1.8 3.4-1.8 2.6 0 5 2 5 5.7v0.1c0 3.7-2.4 5.7-5 5.7-1.3 0-2.6-0.6-3.4-1.7 0 0.9-0.7 1.5-1.6 1.6-0.9 0-1.6-0.7-1.6-1.5v-12.3zm8.5 8.1c0.2-1.5-0.9-2.8-2.4-3s-2.8 0.9-3 2.4v0.7 0.1c-0.2 1.5 0.9 2.8 2.4 3s2.8-0.9 3-2.4v-0.8z"/>
				<path class="st1" d="m138.3 92.5c0-0.9 0.7-1.6 1.6-1.6s1.5 0.7 1.6 1.6v4.2c0.7-1.1 2-1.8 3.3-1.8 2.4 0 3.8 1.6 3.8 4.1v5.7c0 0.9-0.7 1.6-1.6 1.6s-1.6-0.7-1.6-1.6v-4.7c0-1.5-0.7-2.3-1.9-2.3s-2 0.8-2 2.3v4.7c0 0.9-0.7 1.6-1.6 1.6s-1.5-0.7-1.6-1.6v-12.2z"/>
				<path class="st1" d="m121.9 157.5c0-2.4 1.8-3.5 4.5-3.5 0.9 0 1.8 0.1 2.7 0.4v-0.2c0-1.3-0.8-2-2.4-2-0.7 0-1.5 0.1-2.2 0.3-0.1 0.1-0.3 0.1-0.4 0.1-0.7 0-1.3-0.5-1.3-1.2 0-0.5 0.3-1 0.9-1.2 1.1-0.4 2.3-0.6 3.5-0.6 1.4-0.1 2.7 0.3 3.7 1.3 0.9 1 1.3 2.2 1.2 3.5v5.1c0 0.8-0.7 1.5-1.5 1.5-0.8 0.1-1.4-0.5-1.5-1.3-0.9 0.9-2.1 1.5-3.4 1.4-2-0.2-3.8-1.4-3.8-3.6zm7.2-0.7v-0.6c-0.6-0.3-1.3-0.4-2-0.4-1.4 0-2.2 0.5-2.2 1.5v0.1c0 0.9 0.7 1.4 1.7 1.4 1.5-0.1 2.5-0.9 2.5-2z"/>
				<path class="st1" d="m506.7 500c-1.4-1.5-3.8-1.5-5.3 0-19.7 19.7-19.7 51.7 0 71.4 1.5 1.5 3.8 1.5 5.3 0s1.5-3.8 0-5.3c-16.8-16.8-16.8-44 0-60.9 1.4-1.3 1.4-3.7 0-5.2z"/>
				<path class="st1" d="m559 571.5c0.7 0.7 1.6 1.1 2.6 1.1s1.9-0.4 2.7-1.1c19.7-19.7 19.7-51.7 0-71.4-1.5-1.5-3.8-1.5-5.3 0s-1.5 3.8 0 5.3c16.8 16.8 16.8 44 0 60.9-1.3 1.3-1.3 3.7 0 5.2z"/>
				<path class="st1" d="m317.3 345.9c0 2.1 1.7 3.8 3.8 3.8h50.5c2.1 0 3.8-1.7 3.8-3.8s-1.7-3.8-3.8-3.8h-50.5c-2.1 0-3.8 1.7-3.8 3.8z"/>
				<path class="st1" d="m321.4 330.4c0.6 1.4 2 2.2 3.5 2.2 0.5 0 1.1-0.1 1.6-0.3l46.1-20.9c1.9-0.9 2.8-3.1 1.9-5-0.4-0.9-1.2-1.6-2.1-2l-46.2-17.7c-2-0.7-4.1 0.2-4.9 2.2s0.2 4.1 2.2 4.9l37.6 14.4-37.8 17.2c-1.9 0.9-2.8 3.1-1.9 5z"/>
	</g>
	<rect class="st2" width="1164" height="1020.5"/>
<rect class="st3" x="-427.8" y="644.9" width="153.8" height="143.4"/>
</svg>
